HIERARCHY
ROOT mixamorig:Hips
{
	OFFSET -0.000008 104.274872 1.554316
	CHANNELS 6 Xposition Yposition Zposition Xrotation Yrotation Zrotation
	JOINT mixamorig:Spine
	{
		OFFSET -0.000005 10.181595 0.131519
		CHANNELS 6 Xposition Yposition Zposition Xrotation Yrotation Zrotation
		JOINT mixamorig:Spine1
		{
			OFFSET -0.000000 9.893959 -1.470707
			CHANNELS 6 Xposition Yposition Zposition Xrotation Yrotation Zrotation
			JOINT mixamorig:Spine2
			{
				OFFSET -0.000000 9.220757 -1.370641
				CHANNELS 6 Xposition Yposition Zposition Xrotation Yrotation Zrotation
				JOINT mixamorig:Neck
				{
					OFFSET 0.000001 16.740417 -2.049036
					CHANNELS 6 Xposition Yposition Zposition Xrotation Yrotation Zrotation
					JOINT mixamorig:Head
					{
						OFFSET 0.000000 9.617874 1.685006
						CHANNELS 6 Xposition Yposition Zposition Xrotation Yrotation Zrotation
						JOINT mixamorig:HeadTop_End
						{
							OFFSET 0.000002 22.037354 7.501101
							CHANNELS 6 Xposition Yposition Zposition Xrotation Yrotation Zrotation
							End Site
							{
								OFFSET 0.000168 2310.654297 -282.823242
							}
						}
					}
				}
				JOINT mixamorig:RightShoulder
				{
					OFFSET -4.569970 11.014908 -2.160885
					CHANNELS 6 Xposition Yposition Zposition Xrotation Yrotation Zrotation
					JOINT mixamorig:RightArm
					{
						OFFSET -10.592851 -0.524811 -2.232101
						CHANNELS 6 Xposition Yposition Zposition Xrotation Yrotation Zrotation
						JOINT mixamorig:RightForeArm
						{
							OFFSET -27.841511 0.000031 -0.000004
							CHANNELS 6 Xposition Yposition Zposition Xrotation Yrotation Zrotation
							JOINT mixamorig:RightHand
							{
								OFFSET -28.328831 -0.000015 0.000015
								CHANNELS 6 Xposition Yposition Zposition Xrotation Yrotation Zrotation
								JOINT mixamorig:RightHandThumb1
								{
									OFFSET -2.464806 -1.573990 2.681852
									CHANNELS 6 Xposition Yposition Zposition Xrotation Yrotation Zrotation
									JOINT mixamorig:RightHandThumb2
									{
										OFFSET -3.215179 -1.872803 1.924282
										CHANNELS 6 Xposition Yposition Zposition Xrotation Yrotation Zrotation
										JOINT mixamorig:RightHandThumb3
										{
											OFFSET -2.654831 -1.527969 1.512609
											CHANNELS 6 Xposition Yposition Zposition Xrotation Yrotation Zrotation
											JOINT mixamorig:RightHandThumb4
											{
												OFFSET -2.018814 -1.152008 1.108052
												CHANNELS 6 Xposition Yposition Zposition Xrotation Yrotation Zrotation
												End Site
												{
													OFFSET -188.809540 -114.533607 132.431396
												}
											}
										}
									}
								}
								JOINT mixamorig:RightHandIndex1
								{
									OFFSET -9.108284 -0.517868 2.259835
									CHANNELS 6 Xposition Yposition Zposition Xrotation Yrotation Zrotation
									JOINT mixamorig:RightHandIndex2
									{
										OFFSET -3.699989 0.000000 0.001215
										CHANNELS 6 Xposition Yposition Zposition Xrotation Yrotation Zrotation
										JOINT mixamorig:RightHandIndex3
										{
											OFFSET -2.850006 0.000031 -0.000522
											CHANNELS 6 Xposition Yposition Zposition Xrotation Yrotation Zrotation
											JOINT mixamorig:RightHandIndex4
											{
												OFFSET -2.772186 -0.000015 -0.000020
												CHANNELS 6 Xposition Yposition Zposition Xrotation Yrotation Zrotation
												End Site
												{
													OFFSET -277.218445 0.000000 -0.050231
												}
											}
										}
									}
								}
								JOINT mixamorig:RightHandMiddle1
								{
									OFFSET -9.532516 -0.000031 -0.000023
									CHANNELS 6 Xposition Yposition Zposition Xrotation Yrotation Zrotation
									JOINT mixamorig:RightHandMiddle2
									{
										OFFSET -3.700005 -0.000015 0.003713
										CHANNELS 6 Xposition Yposition Zposition Xrotation Yrotation Zrotation
										JOINT mixamorig:RightHandMiddle3
										{
											OFFSET -2.949974 0.000015 -0.002054
											CHANNELS 6 Xposition Yposition Zposition Xrotation Yrotation Zrotation
											JOINT mixamorig:RightHandMiddle4
											{
												OFFSET -2.946640 0.000000 -0.000156
												CHANNELS 6 Xposition Yposition Zposition Xrotation Yrotation Zrotation
												End Site
												{
													OFFSET -294.664337 0.000000 -0.113670
												}
											}
										}
									}
								}
								JOINT mixamorig:RightHandRing1
								{
									OFFSET -9.103600 -0.043076 -1.865134
									CHANNELS 6 Xposition Yposition Zposition Xrotation Yrotation Zrotation
									JOINT mixamorig:RightHandRing2
									{
										OFFSET -3.379288 0.000000 -0.001055
										CHANNELS 6 Xposition Yposition Zposition Xrotation Yrotation Zrotation
										JOINT mixamorig:RightHandRing3
										{
											OFFSET -2.889687 -0.000015 0.000379
											CHANNELS 6 Xposition Yposition Zposition Xrotation Yrotation Zrotation
											JOINT mixamorig:RightHandRing4
											{
												OFFSET -2.638809 -0.000015 0.000941
												CHANNELS 6 Xposition Yposition Zposition Xrotation Yrotation Zrotation
												End Site
												{
													OFFSET -263.880371 0.000000 0.516020
												}
											}
										}
									}
								}
								JOINT mixamorig:RightHandPinky1
								{
									OFFSET -8.076683 -0.486710 -3.806280
									CHANNELS 6 Xposition Yposition Zposition Xrotation Yrotation Zrotation
									JOINT mixamorig:RightHandPinky2
									{
										OFFSET -3.600014 -0.000015 -0.003747
										CHANNELS 6 Xposition Yposition Zposition Xrotation Yrotation Zrotation
										JOINT mixamorig:RightHandPinky3
										{
											OFFSET -2.099983 0.000000 -0.005739
											CHANNELS 6 Xposition Yposition Zposition Xrotation Yrotation Zrotation
											JOINT mixamorig:RightHandPinky4
											{
												OFFSET -2.115768 -0.000031 -0.003680
												CHANNELS 6 Xposition Yposition Zposition Xrotation Yrotation Zrotation
												End Site
												{
													OFFSET -211.577087 0.000000 -0.350686
												}
											}
										}
									}
								}
							}
						}
					}
				}
				JOINT mixamorig:LeftShoulder
				{
					OFFSET 4.570447 11.014725 -2.160855
					CHANNELS 6 Xposition Yposition Zposition Xrotation Yrotation Zrotation
					JOINT mixamorig:LeftArm
					{
						OFFSET 10.592371 -0.524597 -2.232119
						CHANNELS 6 Xposition Yposition Zposition Xrotation Yrotation Zrotation
						JOINT mixamorig:LeftForeArm
						{
							OFFSET 27.841532 -0.000031 0.000026
							CHANNELS 6 Xposition Yposition Zposition Xrotation Yrotation Zrotation
							JOINT mixamorig:LeftHand
							{
								OFFSET 28.328846 -0.000061 0.000022
								CHANNELS 6 Xposition Yposition Zposition Xrotation Yrotation Zrotation
								JOINT mixamorig:LeftHandThumb1
								{
									OFFSET 2.466141 -1.576172 2.681732
									CHANNELS 6 Xposition Yposition Zposition Xrotation Yrotation Zrotation
									JOINT mixamorig:LeftHandThumb2
									{
										OFFSET 3.217812 -1.872070 1.916482
										CHANNELS 6 Xposition Yposition Zposition Xrotation Yrotation Zrotation
										JOINT mixamorig:LeftHandThumb3
										{
											OFFSET 2.656029 -1.528778 1.514513
											CHANNELS 6 Xposition Yposition Zposition Xrotation Yrotation Zrotation
											JOINT mixamorig:LeftHandThumb4
											{
												OFFSET 2.020889 -1.154053 1.115139
												CHANNELS 6 Xposition Yposition Zposition Xrotation Yrotation Zrotation
												End Site
												{
													OFFSET 190.885437 -115.081749 130.048782
												}
											}
										}
									}
								}
								JOINT mixamorig:LeftHandIndex1
								{
									OFFSET 9.109314 -0.518021 2.259871
									CHANNELS 6 Xposition Yposition Zposition Xrotation Yrotation Zrotation
									JOINT mixamorig:LeftHandIndex2
									{
										OFFSET 3.699989 0.000000 -0.000322
										CHANNELS 6 Xposition Yposition Zposition Xrotation Yrotation Zrotation
										JOINT mixamorig:LeftHandIndex3
										{
											OFFSET 2.850006 0.000000 0.000352
											CHANNELS 6 Xposition Yposition Zposition Xrotation Yrotation Zrotation
											JOINT mixamorig:LeftHandIndex4
											{
												OFFSET 2.774864 -0.000031 -0.000027
												CHANNELS 6 Xposition Yposition Zposition Xrotation Yrotation Zrotation
												End Site
												{
													OFFSET 277.486267 0.000000 -0.009857
												}
											}
										}
									}
								}
								JOINT mixamorig:LeftHandMiddle1
								{
									OFFSET 9.533394 0.000061 0.000044
									CHANNELS 6 Xposition Yposition Zposition Xrotation Yrotation Zrotation
									JOINT mixamorig:LeftHandMiddle2
									{
										OFFSET 3.699989 -0.000015 -0.000231
										CHANNELS 6 Xposition Yposition Zposition Xrotation Yrotation Zrotation
										JOINT mixamorig:LeftHandMiddle3
										{
											OFFSET 2.949997 -0.000015 -0.000059
											CHANNELS 6 Xposition Yposition Zposition Xrotation Yrotation Zrotation
											JOINT mixamorig:LeftHandMiddle4
											{
												OFFSET 2.952896 0.000031 0.000063
												CHANNELS 6 Xposition Yposition Zposition Xrotation Yrotation Zrotation
												End Site
												{
													OFFSET 295.289337 0.000000 0.022810
												}
											}
										}
									}
								}
								JOINT mixamorig:LeftHandRing1
								{
									OFFSET 9.104523 -0.042999 -1.865074
									CHANNELS 6 Xposition Yposition Zposition Xrotation Yrotation Zrotation
									JOINT mixamorig:LeftHandRing2
									{
										OFFSET 3.150009 -0.000031 0.000043
										CHANNELS 6 Xposition Yposition Zposition Xrotation Yrotation Zrotation
										JOINT mixamorig:LeftHandRing3
										{
											OFFSET 2.949982 -0.000015 0.000040
											CHANNELS 6 Xposition Yposition Zposition Xrotation Yrotation Zrotation
											JOINT mixamorig:LeftHandRing4
											{
												OFFSET 2.644348 0.000000 0.000057
												CHANNELS 6 Xposition Yposition Zposition Xrotation Yrotation Zrotation
												End Site
												{
													OFFSET 264.434631 0.000000 0.012105
												}
											}
										}
									}
								}
								JOINT mixamorig:LeftHandPinky1
								{
									OFFSET 8.077789 -0.486847 -3.806259
									CHANNELS 6 Xposition Yposition Zposition Xrotation Yrotation Zrotation
									JOINT mixamorig:LeftHandPinky2
									{
										OFFSET 3.599953 0.000031 0.014727
										CHANNELS 6 Xposition Yposition Zposition Xrotation Yrotation Zrotation
										JOINT mixamorig:LeftHandPinky3
										{
											OFFSET 2.100021 0.000015 0.007705
											CHANNELS 6 Xposition Yposition Zposition Xrotation Yrotation Zrotation
											JOINT mixamorig:LeftHandPinky4
											{
												OFFSET 2.125504 0.000031 0.007517
												CHANNELS 6 Xposition Yposition Zposition Xrotation Yrotation Zrotation
												End Site
												{
													OFFSET 212.550781 0.000000 0.625752
												}
											}
										}
									}
								}
							}
						}
					}
				}
			}
		}
	}
	JOINT mixamorig:RightUpLeg
	{
		OFFSET -8.207787 -6.751648 -1.599560
		CHANNELS 6 Xposition Yposition Zposition Xrotation Yrotation Zrotation
		JOINT mixamorig:RightLeg
		{
			OFFSET -0.000002 -44.370117 0.345942
			CHANNELS 6 Xposition Yposition Zposition Xrotation Yrotation Zrotation
			JOINT mixamorig:RightFoot
			{
				OFFSET 0.000003 -44.423679 -3.043532
				CHANNELS 6 Xposition Yposition Zposition Xrotation Yrotation Zrotation
				JOINT mixamorig:RightToeBase
				{
					OFFSET -0.000002 -8.728671 10.710558
					CHANNELS 6 Xposition Yposition Zposition Xrotation Yrotation Zrotation
					JOINT mixamorig:RightToe_End
					{
						OFFSET -0.000001 -0.000679 9.278119
						CHANNELS 6 Xposition Yposition Zposition Xrotation Yrotation Zrotation
						End Site
						{
							OFFSET 0.000000 -0.067690 927.812134
						}
					}
				}
			}
		}
	}
	JOINT mixamorig:LeftUpLeg
	{
		OFFSET 8.207793 -6.751686 -1.599556
		CHANNELS 6 Xposition Yposition Zposition Xrotation Yrotation Zrotation
		JOINT mixamorig:LeftLeg
		{
			OFFSET -0.000004 -44.370014 0.346954
			CHANNELS 6 Xposition Yposition Zposition Xrotation Yrotation Zrotation
			JOINT mixamorig:LeftFoot
			{
				OFFSET -0.000001 -44.423672 -3.044401
				CHANNELS 6 Xposition Yposition Zposition Xrotation Yrotation Zrotation
				JOINT mixamorig:LeftToeBase
				{
					OFFSET -0.000002 -8.728669 10.710558
					CHANNELS 6 Xposition Yposition Zposition Xrotation Yrotation Zrotation
					JOINT mixamorig:LeftToe_End
					{
						OFFSET -0.000003 -0.000679 9.278133
						CHANNELS 6 Xposition Yposition Zposition Xrotation Yrotation Zrotation
						End Site
						{
							OFFSET 0.000000 -0.068021 927.813477
						}
					}
				}
			}
		}
	}
}
MOTION
Frames: 3
Frame Time: 0.033333
0.000006 104.270477 1.554256 0.000010 0.000003 -0.000113 -0.000005 10.181587 0.131522 0.000001 -0.000003 0.000084 -0.000000 9.893967 -1.470711 0.000001 0.000000 -0.000000 -0.000000 9.220802 -1.370642 0.000000 -0.000000 -0.000000 0.000001 16.740433 -2.049030 0.000000 -0.000000 -0.000000 0.000000 9.617859 1.685014 0.000000 0.000000 0.000000 0.000002 22.037384 7.501101 0.000000 -0.000000 0.000000 -4.569968 11.014880 -2.160881 0.000008 0.000001 -0.000038 -10.592882 -0.524712 -2.231973 72.500443 17.628145 -12.972834 -27.841534 0.000022 0.000539 -56.941757 114.474073 80.240092 -28.328819 0.000006 0.000021 -0.000320 -0.000043 0.000006 -2.464416 -1.573825 2.682359 -42.445685 -160.697699 3.144161 -3.215261 -1.872543 1.924636 151.999890 33.003238 15.791915 -2.654951 -1.527893 1.513072 147.764135 27.147243 -33.412592 -2.018826 -1.152018 1.108070 -0.000000 -0.000006 -0.000001 -9.108364 -0.517550 2.260112 98.030263 15.617803 -17.993099 -3.700082 0.000322 0.001488 94.852524 13.755671 -14.934011 -2.850078 0.000348 -0.000284 93.216038 10.675296 -11.287131 -2.772172 0.000000 -0.000021 0.000003 0.000000 0.000001 -9.532583 0.000280 0.000233 92.771611 13.903025 -14.731188 -3.700075 0.000333 0.003959 91.214410 11.740231 -11.893671 -2.950075 0.000341 -0.001838 92.361841 11.200246 -11.661175 -2.946633 0.000014 -0.000152 -0.000005 -0.000000 0.000000 -9.103699 -0.042752 -1.864883 91.032119 15.829518 -16.068645 -3.379319 0.000314 -0.000819 90.089895 8.478004 -8.508384 -2.889756 0.000346 0.000622 96.007659 5.732986 -6.416471 -2.638821 -0.000014 0.000938 0.000002 -0.000001 -0.000001 -8.076735 -0.486396 -3.806036 84.658467 15.510929 -14.007334 -3.600012 0.000297 -0.003532 87.144813 5.413053 -4.826087 -2.099995 0.000336 -0.005499 90.885120 2.756783 -2.586341 -2.115766 -0.000027 -0.003673 -0.000000 0.000000 -0.000004 4.570446 11.014691 -2.160851 -0.000018 0.000010 -0.000021 10.592514 -0.524532 -2.232392 62.265084 -60.957519 39.139655 27.841732 -0.000073 -0.000094 58.742646 -107.199908 74.714709 28.328829 -0.000026 0.000034 0.000024 -0.000087 0.000001 2.466152 -1.576155 2.681865 -69.793366 37.085192 24.679480 3.217806 -1.872024 1.916523 249.630710 47.374250 55.187396 2.656002 -1.528798 1.514602 199.748636 42.249248 457.944650 2.020895 -1.154087 1.115149 0.000002 0.000003 0.000004 9.109234 -0.517774 2.260099 -121.331153 -15.247748 -26.783706 3.699925 0.000230 -0.000090 -111.991313 -14.229076 -20.978506 2.849946 0.000242 0.000598 -108.033730 -12.375376 -16.983767 2.774878 -0.000045 -0.000030 0.000002 0.000005 0.000001 9.533450 0.000065 0.000101 -190.646562 -17.526214 -242.357078 3.700050 0.000185 -0.000380 -87.565272 -170.106722 190.317907 2.950010 0.000069 -0.000210 -308.050138 0.254900 -0.122990 2.952875 -0.000028 0.000062 0.000001 0.000001 0.000002 9.104669 -0.042933 -1.865049 -196.062725 -19.259549 -259.483914 3.149997 0.000213 -0.000154 -280.755554 1.870341 -1.547319 2.949968 0.000108 -0.000105 -313.717993 11.866550 -5.085981 2.644322 0.000032 0.000056 -0.000000 0.000000 -0.000002 8.077936 -0.486761 -3.806230 -19.281226 -162.073231 -91.377734 3.599934 0.000209 0.014531 -285.013194 3.166441 -2.123440 2.099954 0.000089 0.007537 46.412150 13.143748 -5.539225 2.125504 0.000001 0.007513 0.000000 -0.000000 -0.000003 -8.207786 -6.751667 -1.599560 -0.077001 -0.000003 0.000080 -0.000002 -44.370110 0.345938 0.153719 -0.000000 -0.000000 0.000000 -44.423679 -3.043532 -0.076700 0.000000 -0.000002 -0.000006 -8.728667 10.710559 -0.000009 -0.000000 -0.000000 -0.000001 -0.000679 9.278123 0.000000 -0.000000 -0.000000 8.207792 -6.751710 -1.599556 -0.074518 -0.000003 0.000081 -0.000002 -44.370014 0.346960 0.148822 0.000002 0.000000 -0.000001 -44.423664 -3.044403 -0.074314 0.000000 -0.000002 -0.000004 -8.728671 10.710558 0.000007 -0.000000 -0.000000 0.000000 -0.000680 9.278137 -0.000000 0.000000 -0.000001 
0.000006 104.270477 1.554256 0.000010 0.000003 -0.000113 -0.000005 10.181587 0.131522 0.000001 -0.000003 0.000084 -0.000000 9.893967 -1.470711 0.000001 0.000000 -0.000000 -0.000000 9.220802 -1.370642 0.000000 -0.000000 -0.000000 0.000001 16.740433 -2.049030 0.000000 -0.000000 -0.000000 0.000000 9.617859 1.685014 0.000000 0.000000 0.000000 0.000002 22.037384 7.501101 0.000000 -0.000000 0.000000 -4.569968 11.014880 -2.160881 0.000008 0.000001 -0.000038 -10.592885 -0.524717 -2.231962 72.478067 18.513518 -13.623991 -27.841520 0.000014 0.000527 -56.922930 112.944234 78.575610 -28.328827 0.000020 0.000022 -0.000322 -0.000044 0.000006 -2.464416 -1.573830 2.682359 -40.006112 -158.809207 8.242151 -3.215277 -1.872560 1.924618 151.632303 33.220729 17.860332 -2.654959 -1.527894 1.513077 147.902911 27.155302 -33.102590 -2.018823 -1.152019 1.108069 0.000002 0.000005 0.000004 -9.108377 -0.517550 2.260118 98.515766 15.485179 -17.992236 -3.700065 0.000324 0.001503 95.035792 13.501478 -14.704742 -2.850082 0.000371 -0.000271 93.262224 10.394260 -10.998987 -2.772162 -0.000002 -0.000020 0.000002 -0.000000 -0.000000 -9.532580 0.000273 0.000235 93.388664 14.131741 -15.131714 -3.700070 0.000332 0.003960 91.470809 11.600485 -11.803494 -2.950060 0.000334 -0.001822 92.388868 11.058851 -11.519355 -2.946623 0.000014 -0.000159 -0.000003 0.000000 -0.000001 -9.103699 -0.042743 -1.864870 91.315955 16.136964 -16.461589 -3.379323 0.000331 -0.000855 90.488361 8.490022 -8.579676 -2.889747 0.000355 0.000643 96.157350 5.640891 -6.330748 -2.638797 -0.000016 0.000938 0.000003 -0.000001 0.000001 -8.076747 -0.486371 -3.806034 85.040199 15.808977 -14.374130 -3.600019 0.000292 -0.003540 87.188724 5.682126 -5.084765 -2.100021 0.000335 -0.005500 90.809721 2.932590 -2.760663 -2.115772 -0.000040 -0.003675 -0.000003 0.000002 -0.000005 4.570446 11.014691 -2.160851 -0.000018 0.000010 -0.000021 10.592520 -0.524535 -2.232392 62.221261 -63.395603 40.880161 27.841736 -0.000085 -0.000089 58.616909 -107.332769 74.706943 28.328838 -0.000014 0.000022 0.000019 -0.000086 0.000000 2.466151 -1.576150 2.681866 -69.038227 38.685123 24.507740 3.217809 -1.872008 1.916529 249.156668 47.944301 55.823457 2.655983 -1.528814 1.514621 194.490142 42.049315 463.744327 2.020894 -1.154053 1.115143 0.000002 0.000004 0.000004 9.109241 -0.517749 2.260110 -120.147276 -14.050281 -24.154867 3.699947 0.000214 -0.000089 -111.438231 -13.431927 -19.616616 2.849957 0.000239 0.000589 -108.250480 -11.835044 -16.310859 2.774882 -0.000046 -0.000025 0.000001 0.000001 -0.000001 9.533488 0.000124 0.000098 -192.135516 -16.521859 -252.475320 3.700021 0.000213 -0.000388 -88.698968 -171.264753 188.932472 2.950006 0.000077 -0.000209 -308.129641 0.213992 -0.102879 2.952879 0.000004 0.000062 -0.000002 -0.000002 0.000001 9.104676 -0.042898 -1.865058 -197.146758 -17.854044 -267.638203 3.150009 0.000207 -0.000130 -282.103861 2.317327 -1.871966 2.949958 0.000106 -0.000122 -312.864301 10.784948 -4.715438 2.644312 0.000016 0.000056 -0.000000 0.000000 0.000002 8.077929 -0.486716 -3.806242 -21.089280 -162.639208 -98.527337 3.599936 0.000182 0.014509 -287.536102 3.447555 -2.236234 2.099957 0.000092 0.007529 46.045867 12.847448 -5.362202 2.125494 -0.000013 0.007515 0.000000 -0.000000 0.000001 -8.207786 -6.751667 -1.599560 -0.077001 -0.000003 0.000080 -0.000002 -44.370110 0.345938 0.153719 -0.000000 -0.000000 0.000000 -44.423679 -3.043532 -0.076700 0.000000 -0.000002 -0.000006 -8.728667 10.710559 -0.000009 -0.000000 -0.000000 -0.000001 -0.000679 9.278123 0.000000 -0.000000 -0.000000 8.207792 -6.751710 -1.599556 -0.074518 -0.000003 0.000081 -0.000002 -44.370014 0.346960 0.148822 0.000002 0.000000 -0.000001 -44.423664 -3.044403 -0.074314 0.000000 -0.000002 -0.000004 -8.728671 10.710558 0.000007 -0.000000 -0.000000 0.000000 -0.000680 9.278137 -0.000000 0.000000 -0.000001 
0.000006 104.270477 1.554256 0.000010 0.000003 -0.000113 -0.000005 10.181587 0.131522 0.000001 -0.000003 0.000084 -0.000000 9.893967 -1.470711 0.000001 0.000000 -0.000000 -0.000000 9.220802 -1.370642 0.000000 -0.000000 -0.000000 0.000001 16.740433 -2.049030 0.000000 -0.000000 -0.000000 0.000000 9.617859 1.685014 0.000000 0.000000 0.000000 0.000002 22.037384 7.501101 0.000000 -0.000000 0.000000 -4.569968 11.014880 -2.160881 0.000008 0.000001 -0.000038 -10.592882 -0.524721 -2.231967 72.482685 18.990612 -13.979184 -27.841520 0.000006 0.000533 -56.999749 112.563758 78.261175 -28.328814 0.000021 0.000024 -0.000322 -0.000044 0.000007 -2.464409 -1.573833 2.682370 -40.750182 -158.841923 6.536206 -3.215260 -1.872563 1.924633 151.696507 32.934363 15.774505 -2.654956 -1.527883 1.513061 147.517907 27.274588 -32.537498 -2.018811 -1.151999 1.108064 -0.000004 -0.000000 0.000002 -9.108366 -0.517538 2.260116 98.550785 15.334830 -17.829548 -3.700074 0.000319 0.001501 95.223998 12.982217 -14.185543 -2.850074 0.000371 -0.000276 93.695476 9.931361 -10.588875 -2.772179 -0.000016 -0.000018 -0.000000 -0.000000 0.000000 -9.532579 0.000278 0.000230 93.417085 14.237208 -15.251044 -3.700077 0.000334 0.003955 91.809948 11.325694 -11.589974 -2.950060 0.000336 -0.001833 92.918037 10.817134 -11.371549 -2.946623 0.000001 -0.000156 -0.000003 0.000000 -0.000001 -9.103695 -0.042747 -1.864878 91.465768 16.184627 -16.552922 -3.379310 0.000324 -0.000824 90.932911 8.433095 -8.588374 -2.889756 0.000361 0.000645 96.891240 5.543408 -6.302758 -2.638814 -0.000001 0.000944 0.000000 -0.000001 -0.000001 -8.076738 -0.486380 -3.806043 85.027372 15.783235 -14.347292 -3.600026 0.000291 -0.003550 87.217103 5.775558 -5.175861 -2.100014 0.000314 -0.005503 91.098345 3.077200 -2.921513 -2.115761 -0.000039 -0.003682 0.000003 -0.000002 -0.000003 4.570446 11.014691 -2.160851 -0.000018 0.000010 -0.000021 10.592514 -0.524535 -2.232394 62.400608 -61.663952 39.748484 27.841732 -0.000073 -0.000099 58.738042 -107.449517 74.961886 28.328838 -0.000028 0.000049 0.000025 -0.000089 0.000001 2.466155 -1.576160 2.681875 -69.492161 37.968834 24.652034 3.217816 -1.872019 1.916530 248.566375 47.524036 56.065608 2.656016 -1.528796 1.514617 196.602037 41.754193 461.094651 2.020899 -1.154065 1.115145 0.000002 0.000001 0.000002 9.109241 -0.517762 2.260119 -120.838996 -14.539873 -25.321029 3.699931 0.000236 -0.000096 -111.485339 -13.798843 -20.163550 2.849968 0.000237 0.000573 -108.877313 -11.765774 -16.401690 2.774877 -0.000061 -0.000031 0.000000 0.000001 0.000001 9.533481 0.000087 0.000101 -191.996003 -17.583955 -248.432148 3.700037 0.000194 -0.000375 -86.752965 -169.939560 190.641330 2.949994 0.000080 -0.000212 -305.396145 0.256915 -0.131355 2.952865 -0.000016 0.000069 -0.000001 -0.000004 0.000001 9.104644 -0.042922 -1.865044 -196.377064 -18.595084 -262.618834 3.150002 0.000210 -0.000138 -279.580816 1.494040 -1.261754 2.949956 0.000114 -0.000159 -309.928631 11.100588 -5.196923 2.644316 0.000033 0.000058 -0.000000 -0.000000 0.000001 8.077935 -0.486737 -3.806227 -19.774755 -162.497468 -94.243053 3.599934 0.000202 0.014529 -283.244011 3.083204 -2.125493 2.099971 0.000113 0.007545 50.297650 13.066679 -6.024269 2.125516 -0.000017 0.007514 0.000000 0.000000 0.000001 -8.207786 -6.751667 -1.599560 -0.077001 -0.000003 0.000080 -0.000002 -44.370110 0.345938 0.153719 -0.000000 -0.000000 0.000000 -44.423679 -3.043532 -0.076700 0.000000 -0.000002 -0.000006 -8.728667 10.710559 -0.000009 -0.000000 -0.000000 -0.000001 -0.000679 9.278123 0.000000 -0.000000 -0.000000 8.207792 -6.751710 -1.599556 -0.074518 -0.000003 0.000081 -0.000002 -44.370014 0.346960 0.148822 0.000002 0.000000 -0.000001 -44.423664 -3.044403 -0.074314 0.000000 -0.000002 -0.000004 -8.728671 10.710558 0.000007 -0.000000 -0.000000 0.000000 -0.000680 9.278137 -0.000000 0.000000 -0.000001 
